<svg xmlns="http://www.w3.org/2000/svg" viewBox="0 0 100 100">
  <rect width="100" height="100" rx="22" fill="#26336E"/>
  <path d="M32,54 C22,44 14,26 18,12 C22,4 32,16 36,40Z" fill="#E0990F" stroke="#E15B3C" stroke-width="2.5" stroke-linejoin="round"/>
  <path d="M40,50 C36,34 38,14 46,8 C54,2 56,20 52,42Z" fill="#E0990F" stroke="#E15B3C" stroke-width="2.5" stroke-linejoin="round"/>
  <path d="M18,62 C14,56 18,48 26,46 C36,44 50,48 62,40 C68,36 72,30 70,24 C68,20 64,22 66,28 C68,32 74,30 76,24 C74,38 64,50 54,54 C42,60 30,68 18,62Z" fill="#E0990F" stroke="#E15B3C" stroke-width="2.5" stroke-linejoin="round"/>
  <path d="M18,60 C10,58 6,66 10,74 C12,72 14,68 16,64Z" fill="#E0990F" stroke="#E15B3C" stroke-width="2.5" stroke-linejoin="round"/>
  <path d="M14,66 C6,66 4,76 8,80 C12,78 12,72 14,68Z" fill="#E0990F" stroke="#E15B3C" stroke-width="2.5" stroke-linejoin="round"/>
  <circle cx="72" cy="26" r="9" fill="#E0990F" stroke="#E15B3C" stroke-width="2.5"/>
  <circle cx="75" cy="23" r="2" fill="#26336E"/>
  <path d="M80,22 L92,18 L80,30Z" fill="#E0990F" stroke="#E15B3C" stroke-width="1.5" stroke-linejoin="round"/>
</svg>